<svg width="800" height="300" viewBox="0 0 800 300" fill="none" xmlns="http://www.w3.org/2000/svg">
<defs>
<linearGradient id="bodyGradient" x1="0" y1="50" x2="800" y2="50" gradientUnits="userSpaceOnUse">
<stop stop-color="#D3D3D3"/>
<stop offset="0.3" stop-color="#E0E0E0"/>
<stop offset="0.7" stop-color="#C0C0C0"/>
<stop offset="1" stop-color="#A9A9A9"/>
</linearGradient>
<linearGradient id="windowGradient" x1="0" y1="0" x2="0" y2="100" gradientUnits="userSpaceOnUse">
<stop stop-color="#333333"/>
<stop offset="1" stop-color="#1A1A1A"/>
</linearGradient>
<linearGradient id="wheelGradient" x1="0" y1="0" x2="0" y2="50" gradientUnits="userSpaceOnUse">
<stop stop-color="#404040"/>
<stop offset="1" stop-color="#202020"/>
</linearGradient>
<linearGradient id="tireGradient" x1="0" y1="0" x2="0" y2="30" gradientUnits="userSpaceOnUse">
<stop stop-color="#101010"/>
<stop offset="1" stop-color="#000000"/>
</linearGradient>
</defs>
<rect width="800" height="300" fill="white"/>
<path d="M70 150 C 80 100, 150 80, 250 80 H 550 C 650 80, 720 100, 730 150 L 750 210 C 750 230, 700 250, 650 250 H 150 C 100 250, 50 230, 50 210 L 70 150 Z" fill="url(#bodyGradient)" stroke="#808080" stroke-width="1"/>
<path d="M250 80 H 550 C 630 80, 690 110, 700 160 L 700 210 H 250 L 250 80 Z" fill="url(#windowGradient)" stroke="none"/>
<rect x="50" y="150" width="20" height="40" fill="#808080"/>
<circle cx="170" cy="250" r="30" fill="url(#wheelGradient)" stroke="#000" stroke-width="1"/>
<circle cx="170" cy="250" r="27" fill="url(#tireGradient)" />
<circle cx="630" cy="250" r="30" fill="url(#wheelGradient)" stroke="#000" stroke-width="1"/>
<circle cx="630" cy="250" r="27" fill="url(#tireGradient)"/>

<path d="M690 145 C 700 150, 705 160, 703 170" stroke="#000000" stroke-width="1.5" fill="none"/>
<path d="M200 145 C 190 150, 185 160, 187 170" stroke="#000000" stroke-width="1.5" fill="none"/>

<rect x="60" y="150" width="10" height="6" fill="#808080"/>
<rect x="60" y="160" width="10" height="6" fill="#808080"/>
<rect x="60" y="170" width="10" height="6" fill="#808080"/>
<rect x="60" y="180" width="10" height="6" fill="#808080"/>
<rect x="60" y="190" width="10" height="6" fill="#808080"/>
</svg>